<mxfile host="Electron" agent="Mozilla/5.0 (Macintosh; Intel Mac OS X 10_15_7) AppleWebKit/537.36 (KHTML, like Gecko) draw.io/26.2.2 Chrome/134.0.6998.178 Electron/35.1.2 Safari/537.36" version="26.2.2">
  <diagram name="Page-1" id="1NsTlNir2Iv3yrO_6yrK">
    <mxGraphModel dx="2038" dy="1116" grid="1" gridSize="10" guides="1" tooltips="1" connect="1" arrows="1" fold="1" page="1" pageScale="1" pageWidth="1169" pageHeight="827" math="0" shadow="0">
      <root>
        <mxCell id="0" />
        <mxCell id="1" parent="0" />
        <mxCell id="UBQqsNv0OqBYlWjkHIAb-1" style="edgeStyle=orthogonalEdgeStyle;rounded=0;orthogonalLoop=1;jettySize=auto;html=1;entryX=0.5;entryY=0;entryDx=0;entryDy=0;fontSize=14;" edge="1" parent="1" source="UBQqsNv0OqBYlWjkHIAb-2" target="UBQqsNv0OqBYlWjkHIAb-4">
          <mxGeometry relative="1" as="geometry" />
        </mxCell>
        <mxCell id="UBQqsNv0OqBYlWjkHIAb-2" value="Початок" style="ellipse;whiteSpace=wrap;html=1;fontSize=14;" vertex="1" parent="1">
          <mxGeometry x="500" y="20" width="120" height="40" as="geometry" />
        </mxCell>
        <mxCell id="UBQqsNv0OqBYlWjkHIAb-3" style="edgeStyle=orthogonalEdgeStyle;rounded=0;orthogonalLoop=1;jettySize=auto;html=1;exitX=0.5;exitY=1;exitDx=0;exitDy=0;fontSize=14;" edge="1" parent="1" source="UBQqsNv0OqBYlWjkHIAb-4" target="UBQqsNv0OqBYlWjkHIAb-6">
          <mxGeometry relative="1" as="geometry" />
        </mxCell>
        <mxCell id="UBQqsNv0OqBYlWjkHIAb-4" value="Перемістити в x=0, y=0" style="rounded=0;whiteSpace=wrap;html=1;fontSize=14;" vertex="1" parent="1">
          <mxGeometry x="495" y="80" width="130" height="40" as="geometry" />
        </mxCell>
        <mxCell id="UBQqsNv0OqBYlWjkHIAb-5" style="edgeStyle=orthogonalEdgeStyle;rounded=0;orthogonalLoop=1;jettySize=auto;html=1;exitX=0.5;exitY=1;exitDx=0;exitDy=0;fontSize=14;" edge="1" parent="1" source="UBQqsNv0OqBYlWjkHIAb-6" target="UBQqsNv0OqBYlWjkHIAb-11">
          <mxGeometry relative="1" as="geometry" />
        </mxCell>
        <mxCell id="UBQqsNv0OqBYlWjkHIAb-6" value="Повернути в напрямку 90" style="rounded=0;whiteSpace=wrap;html=1;fontSize=14;" vertex="1" parent="1">
          <mxGeometry x="495" y="140" width="130" height="40" as="geometry" />
        </mxCell>
        <mxCell id="UBQqsNv0OqBYlWjkHIAb-7" style="edgeStyle=orthogonalEdgeStyle;rounded=0;orthogonalLoop=1;jettySize=auto;html=1;exitX=1;exitY=0.5;exitDx=0;exitDy=0;entryX=0.5;entryY=0;entryDx=0;entryDy=0;fontSize=14;" edge="1" parent="1" source="UBQqsNv0OqBYlWjkHIAb-11" target="UBQqsNv0OqBYlWjkHIAb-18">
          <mxGeometry relative="1" as="geometry" />
        </mxCell>
        <mxCell id="UBQqsNv0OqBYlWjkHIAb-8" value="Так" style="edgeLabel;html=1;align=center;verticalAlign=middle;resizable=0;points=[];fontSize=14;" vertex="1" connectable="0" parent="UBQqsNv0OqBYlWjkHIAb-7">
          <mxGeometry x="-0.52" relative="1" as="geometry">
            <mxPoint x="-26" y="-10" as="offset" />
          </mxGeometry>
        </mxCell>
        <mxCell id="UBQqsNv0OqBYlWjkHIAb-9" style="edgeStyle=orthogonalEdgeStyle;rounded=0;orthogonalLoop=1;jettySize=auto;html=1;entryX=0.5;entryY=0;entryDx=0;entryDy=0;exitX=0.5;exitY=1;exitDx=0;exitDy=0;fontSize=14;" edge="1" parent="1" source="UBQqsNv0OqBYlWjkHIAb-11" target="UBQqsNv0OqBYlWjkHIAb-16">
          <mxGeometry relative="1" as="geometry">
            <Array as="points">
              <mxPoint x="560" y="320" />
              <mxPoint x="560" y="320" />
            </Array>
          </mxGeometry>
        </mxCell>
        <mxCell id="UBQqsNv0OqBYlWjkHIAb-10" value="Ні" style="edgeLabel;html=1;align=center;verticalAlign=middle;resizable=0;points=[];fontSize=14;" vertex="1" connectable="0" parent="UBQqsNv0OqBYlWjkHIAb-9">
          <mxGeometry x="-0.8145" y="-1" relative="1" as="geometry">
            <mxPoint x="17" y="4" as="offset" />
          </mxGeometry>
        </mxCell>
        <mxCell id="UBQqsNv0OqBYlWjkHIAb-11" value="Клавішу&lt;br&gt;&quot;Стрілка вправо&quot; натиснута?" style="rhombus;whiteSpace=wrap;html=1;fontSize=14;" vertex="1" parent="1">
          <mxGeometry x="485" y="220" width="150" height="80" as="geometry" />
        </mxCell>
        <mxCell id="UBQqsNv0OqBYlWjkHIAb-12" style="edgeStyle=orthogonalEdgeStyle;rounded=0;orthogonalLoop=1;jettySize=auto;html=1;fontSize=14;entryX=0.5;entryY=0;entryDx=0;entryDy=0;exitX=1;exitY=0.5;exitDx=0;exitDy=0;" edge="1" parent="1" source="UBQqsNv0OqBYlWjkHIAb-16" target="UBQqsNv0OqBYlWjkHIAb-20">
          <mxGeometry relative="1" as="geometry">
            <Array as="points">
              <mxPoint x="785" y="370" />
            </Array>
            <mxPoint x="660" y="330" as="sourcePoint" />
            <mxPoint x="810" y="380" as="targetPoint" />
          </mxGeometry>
        </mxCell>
        <mxCell id="UBQqsNv0OqBYlWjkHIAb-13" value="Так" style="edgeLabel;html=1;align=center;verticalAlign=middle;resizable=0;points=[];fontSize=14;" vertex="1" connectable="0" parent="UBQqsNv0OqBYlWjkHIAb-12">
          <mxGeometry x="-0.4" y="1" relative="1" as="geometry">
            <mxPoint x="-36" y="-9" as="offset" />
          </mxGeometry>
        </mxCell>
        <mxCell id="UBQqsNv0OqBYlWjkHIAb-14" style="edgeStyle=orthogonalEdgeStyle;rounded=0;orthogonalLoop=1;jettySize=auto;html=1;entryX=0.5;entryY=0;entryDx=0;entryDy=0;exitX=0.5;exitY=1;exitDx=0;exitDy=0;fontSize=14;" edge="1" parent="1" source="UBQqsNv0OqBYlWjkHIAb-16" target="UBQqsNv0OqBYlWjkHIAb-25">
          <mxGeometry relative="1" as="geometry">
            <mxPoint x="475" y="460" as="sourcePoint" />
            <mxPoint x="550" y="620" as="targetPoint" />
            <Array as="points">
              <mxPoint x="560" y="450" />
              <mxPoint x="560" y="450" />
            </Array>
          </mxGeometry>
        </mxCell>
        <mxCell id="UBQqsNv0OqBYlWjkHIAb-15" value="Ні" style="edgeLabel;html=1;align=center;verticalAlign=middle;resizable=0;points=[];fontSize=14;" vertex="1" connectable="0" parent="UBQqsNv0OqBYlWjkHIAb-14">
          <mxGeometry x="-0.7971" y="-2" relative="1" as="geometry">
            <mxPoint x="20" y="4" as="offset" />
          </mxGeometry>
        </mxCell>
        <mxCell id="UBQqsNv0OqBYlWjkHIAb-16" value="Клавішу&lt;br&gt;&quot;Стрілка вліво&quot; натиснута?" style="rhombus;whiteSpace=wrap;html=1;fontSize=14;" vertex="1" parent="1">
          <mxGeometry x="485" y="330" width="150" height="80" as="geometry" />
        </mxCell>
        <mxCell id="UBQqsNv0OqBYlWjkHIAb-17" style="edgeStyle=orthogonalEdgeStyle;rounded=0;orthogonalLoop=1;jettySize=auto;html=1;exitX=0.5;exitY=1;exitDx=0;exitDy=0;entryX=1;entryY=0.5;entryDx=0;entryDy=0;fontSize=14;" edge="1" parent="1" source="UBQqsNv0OqBYlWjkHIAb-18" target="UBQqsNv0OqBYlWjkHIAb-36">
          <mxGeometry relative="1" as="geometry">
            <Array as="points">
              <mxPoint x="785" y="340" />
              <mxPoint x="920" y="340" />
              <mxPoint x="920" y="740" />
            </Array>
          </mxGeometry>
        </mxCell>
        <mxCell id="UBQqsNv0OqBYlWjkHIAb-18" value="Повернути в напрямку 90" style="rounded=0;whiteSpace=wrap;html=1;fontSize=14;" vertex="1" parent="1">
          <mxGeometry x="720" y="280" width="130" height="40" as="geometry" />
        </mxCell>
        <mxCell id="UBQqsNv0OqBYlWjkHIAb-19" style="edgeStyle=orthogonalEdgeStyle;rounded=0;orthogonalLoop=1;jettySize=auto;html=1;exitX=0.5;exitY=1;exitDx=0;exitDy=0;fontSize=14;" edge="1" parent="1" source="UBQqsNv0OqBYlWjkHIAb-20">
          <mxGeometry relative="1" as="geometry">
            <mxPoint x="920" y="470" as="targetPoint" />
            <Array as="points">
              <mxPoint x="785" y="470" />
              <mxPoint x="920" y="470" />
            </Array>
          </mxGeometry>
        </mxCell>
        <mxCell id="UBQqsNv0OqBYlWjkHIAb-20" value="Повернути в напрямку -90" style="rounded=0;whiteSpace=wrap;html=1;fontSize=14;" vertex="1" parent="1">
          <mxGeometry x="720" y="400" width="130" height="40" as="geometry" />
        </mxCell>
        <mxCell id="UBQqsNv0OqBYlWjkHIAb-21" style="edgeStyle=orthogonalEdgeStyle;rounded=0;orthogonalLoop=1;jettySize=auto;html=1;fontSize=14;entryX=0.5;entryY=0;entryDx=0;entryDy=0;exitX=1;exitY=0.5;exitDx=0;exitDy=0;" edge="1" parent="1" source="UBQqsNv0OqBYlWjkHIAb-25" target="UBQqsNv0OqBYlWjkHIAb-27">
          <mxGeometry relative="1" as="geometry">
            <Array as="points">
              <mxPoint x="785" y="500" />
            </Array>
          </mxGeometry>
        </mxCell>
        <mxCell id="UBQqsNv0OqBYlWjkHIAb-22" value="Так" style="edgeLabel;html=1;align=center;verticalAlign=middle;resizable=0;points=[];fontSize=14;" vertex="1" connectable="0" parent="UBQqsNv0OqBYlWjkHIAb-21">
          <mxGeometry x="0.32" y="3" relative="1" as="geometry">
            <mxPoint x="-97" y="-7" as="offset" />
          </mxGeometry>
        </mxCell>
        <mxCell id="UBQqsNv0OqBYlWjkHIAb-23" style="edgeStyle=orthogonalEdgeStyle;rounded=0;orthogonalLoop=1;jettySize=auto;html=1;exitX=0.5;exitY=1;exitDx=0;exitDy=0;entryX=0.5;entryY=0;entryDx=0;entryDy=0;fontSize=14;" edge="1" parent="1" source="UBQqsNv0OqBYlWjkHIAb-25" target="UBQqsNv0OqBYlWjkHIAb-32">
          <mxGeometry relative="1" as="geometry">
            <Array as="points">
              <mxPoint x="560" y="590" />
              <mxPoint x="560" y="590" />
            </Array>
          </mxGeometry>
        </mxCell>
        <mxCell id="UBQqsNv0OqBYlWjkHIAb-24" value="Ні" style="edgeLabel;html=1;align=center;verticalAlign=middle;resizable=0;points=[];fontSize=14;" vertex="1" connectable="0" parent="UBQqsNv0OqBYlWjkHIAb-23">
          <mxGeometry x="-0.8925" y="1" relative="1" as="geometry">
            <mxPoint y="-11" as="offset" />
          </mxGeometry>
        </mxCell>
        <mxCell id="UBQqsNv0OqBYlWjkHIAb-37" value="Ні" style="edgeLabel;html=1;align=center;verticalAlign=middle;resizable=0;points=[];fontSize=13;" vertex="1" connectable="0" parent="UBQqsNv0OqBYlWjkHIAb-23">
          <mxGeometry x="-0.4667" relative="1" as="geometry">
            <mxPoint x="10" as="offset" />
          </mxGeometry>
        </mxCell>
        <mxCell id="UBQqsNv0OqBYlWjkHIAb-25" value="Клавішу&lt;br&gt;&quot;Стрілка вгору&quot; натиснута?" style="rhombus;whiteSpace=wrap;html=1;fontSize=14;" vertex="1" parent="1">
          <mxGeometry x="485" y="460" width="150" height="80" as="geometry" />
        </mxCell>
        <mxCell id="UBQqsNv0OqBYlWjkHIAb-26" style="edgeStyle=orthogonalEdgeStyle;rounded=0;orthogonalLoop=1;jettySize=auto;html=1;exitX=0.5;exitY=1;exitDx=0;exitDy=0;fontSize=14;" edge="1" parent="1" source="UBQqsNv0OqBYlWjkHIAb-27">
          <mxGeometry relative="1" as="geometry">
            <mxPoint x="920" y="600" as="targetPoint" />
            <Array as="points">
              <mxPoint x="785" y="600" />
              <mxPoint x="920" y="600" />
            </Array>
          </mxGeometry>
        </mxCell>
        <mxCell id="UBQqsNv0OqBYlWjkHIAb-27" value="Повернути в напрямку 0" style="rounded=0;whiteSpace=wrap;html=1;fontSize=14;" vertex="1" parent="1">
          <mxGeometry x="720" y="530" width="130" height="40" as="geometry" />
        </mxCell>
        <mxCell id="UBQqsNv0OqBYlWjkHIAb-28" style="edgeStyle=orthogonalEdgeStyle;rounded=0;orthogonalLoop=1;jettySize=auto;html=1;fontSize=14;entryX=0.5;entryY=0;entryDx=0;entryDy=0;" edge="1" parent="1" source="UBQqsNv0OqBYlWjkHIAb-32" target="UBQqsNv0OqBYlWjkHIAb-35">
          <mxGeometry relative="1" as="geometry" />
        </mxCell>
        <mxCell id="UBQqsNv0OqBYlWjkHIAb-29" value="Так" style="edgeLabel;html=1;align=center;verticalAlign=middle;resizable=0;points=[];fontSize=14;" vertex="1" connectable="0" parent="UBQqsNv0OqBYlWjkHIAb-28">
          <mxGeometry x="-0.64" y="2" relative="1" as="geometry">
            <mxPoint x="-16" y="-8" as="offset" />
          </mxGeometry>
        </mxCell>
        <mxCell id="UBQqsNv0OqBYlWjkHIAb-39" style="edgeStyle=orthogonalEdgeStyle;rounded=0;orthogonalLoop=1;jettySize=auto;html=1;exitX=0.5;exitY=1;exitDx=0;exitDy=0;" edge="1" parent="1" source="UBQqsNv0OqBYlWjkHIAb-32" target="UBQqsNv0OqBYlWjkHIAb-36">
          <mxGeometry relative="1" as="geometry" />
        </mxCell>
        <mxCell id="UBQqsNv0OqBYlWjkHIAb-40" value="Ні" style="edgeLabel;html=1;align=center;verticalAlign=middle;resizable=0;points=[];fontSize=13;" vertex="1" connectable="0" parent="UBQqsNv0OqBYlWjkHIAb-39">
          <mxGeometry x="-0.4" y="2" relative="1" as="geometry">
            <mxPoint x="8" y="-5" as="offset" />
          </mxGeometry>
        </mxCell>
        <mxCell id="UBQqsNv0OqBYlWjkHIAb-32" value="Клавішу&lt;br&gt;&quot;Стрілка вниз&quot; натиснута?" style="rhombus;whiteSpace=wrap;html=1;fontSize=14;" vertex="1" parent="1">
          <mxGeometry x="485" y="590" width="150" height="80" as="geometry" />
        </mxCell>
        <mxCell id="UBQqsNv0OqBYlWjkHIAb-33" style="edgeStyle=orthogonalEdgeStyle;rounded=0;orthogonalLoop=1;jettySize=auto;html=1;exitX=0;exitY=0.5;exitDx=0;exitDy=0;fontSize=14;" edge="1" parent="1" source="UBQqsNv0OqBYlWjkHIAb-36">
          <mxGeometry relative="1" as="geometry">
            <mxPoint x="560" y="200" as="targetPoint" />
            <Array as="points">
              <mxPoint x="400" y="740" />
              <mxPoint x="400" y="200" />
            </Array>
          </mxGeometry>
        </mxCell>
        <mxCell id="UBQqsNv0OqBYlWjkHIAb-38" style="edgeStyle=orthogonalEdgeStyle;rounded=0;orthogonalLoop=1;jettySize=auto;html=1;exitX=0.5;exitY=1;exitDx=0;exitDy=0;" edge="1" parent="1" source="UBQqsNv0OqBYlWjkHIAb-35">
          <mxGeometry relative="1" as="geometry">
            <mxPoint x="785" y="740" as="targetPoint" />
          </mxGeometry>
        </mxCell>
        <mxCell id="UBQqsNv0OqBYlWjkHIAb-35" value="Повернути в напрямку 180" style="rounded=0;whiteSpace=wrap;html=1;fontSize=14;" vertex="1" parent="1">
          <mxGeometry x="720" y="660" width="130" height="40" as="geometry" />
        </mxCell>
        <mxCell id="UBQqsNv0OqBYlWjkHIAb-36" value="Перемістити на 10 кроків" style="rounded=0;whiteSpace=wrap;html=1;fontSize=14;" vertex="1" parent="1">
          <mxGeometry x="495" y="720" width="130" height="40" as="geometry" />
        </mxCell>
      </root>
    </mxGraphModel>
  </diagram>
</mxfile>
